<svg width="50" height="50" viewBox="0 0 50 50" fill="none" xmlns="http://www.w3.org/2000/svg">
<path d="M25 37.5V34.375C26.2082 34.2706 27.3407 33.7432 28.1982 32.8857C29.0557 32.0282 29.5831 30.8957 29.6875 29.6875H32.8125C32.7115 31.7269 31.856 33.6558 30.4122 35.0997C28.9683 36.5435 27.0394 37.399 25 37.5Z" fill="#37C9D3"/>
<path d="M25 43.75C21.2718 43.7454 17.6976 42.2624 15.0613 39.6261C12.4251 36.9899 10.942 33.4157 10.9375 29.6875C11.0216 26.9464 11.8268 24.276 13.2719 21.9453L23.6766 5.37029C23.8268 5.15937 24.0254 4.98742 24.2556 4.86878C24.4858 4.75013 24.741 4.68823 25 4.68823C25.259 4.68823 25.5142 4.75013 25.7444 4.86878C25.9746 4.98742 26.1732 5.15937 26.3234 5.37029L36.6828 21.864C38.1522 24.2163 38.9732 26.9154 39.0625 29.6875C39.058 33.4157 37.5749 36.9899 34.9387 39.6261C32.3024 42.2624 28.7282 43.7454 25 43.75ZM25 9.13748L15.9656 23.525C14.8016 25.3766 14.1452 27.5019 14.0625 29.6875C14.0625 32.5883 15.2148 35.3703 17.266 37.4215C19.3172 39.4726 22.0992 40.625 25 40.625C27.9008 40.625 30.6828 39.4726 32.734 37.4215C34.7852 35.3703 35.9375 32.5883 35.9375 29.6875C35.8484 27.4714 35.1757 25.3181 33.9875 23.4453L25 9.13748Z" fill="#37C9D3"/>
</svg>
