<svg width="545" height="132" viewBox="0 0 545 132" fill="none" xmlns="http://www.w3.org/2000/svg">
<path d="M10.416 18.8C16.032 18.8 19.92 14.912 19.92 9.44C19.92 3.96799 16.032 0.079999 10.416 0.079999C4.8 0.079999 0.912 3.96799 0.912 9.44C0.912 14.912 4.8 18.8 10.416 18.8ZM2.928 98H17.904V34.64H2.928V98ZM101.79 33.2C93.4376 33.2 87.1016 37.232 83.5016 44.288C79.7576 37.088 73.2776 33.2 64.9256 33.2C57.2936 33.2 51.9656 36.512 48.6536 42.272L48.3656 34.64H35.4056V98H50.3816V61.136C50.3816 52.784 54.8456 47.6 62.1896 47.6C68.9576 47.6 72.2696 52.784 72.2696 61.136V98H87.2456V61.136C87.2456 52.784 91.7096 47.6 99.0536 47.6C105.822 47.6 109.134 52.784 109.134 61.136V98H124.11V61.136C124.11 43.712 115.326 33.2 101.79 33.2ZM169.661 99.44C186.653 99.44 197.885 87.92 197.885 71.504V34.64H182.909V71.504C182.909 79.424 177.869 85.04 169.661 85.04C161.453 85.04 156.413 79.424 156.413 71.504V34.64H141.437V71.504C141.437 87.92 152.669 99.44 169.661 99.44ZM246.804 33.2C238.884 33.2 232.404 37.376 228.372 44.288L228.084 34.64H215.124V98H230.1V61.136C230.1 53.216 236.292 47.6 245.22 47.6C252.276 47.6 257.316 53.216 257.316 61.136V98H272.292V61.136C272.292 44.72 261.78 33.2 246.804 33.2Z" fill="black"/>
<path d="M347.259 20.816V5.83999H290.667V98H347.259V83.024H307.083V58.256H345.819V43.28H307.083V20.816H347.259ZM414.98 84.464C410.804 84.464 409.796 82.88 409.796 76.832V57.536C409.796 42.848 399.86 33.2 384.308 33.2C376.676 33.2 367.892 35.504 360.98 40.112L364.436 52.64C371.492 48.32 378.548 46.88 382.436 46.736C389.492 46.448 394.82 50.336 394.82 56.96V57.392C375.524 57.968 355.508 58.976 355.508 78.56C355.508 93.392 367.172 99.44 380.132 99.44C385.46 99.44 392.228 97.856 398.276 93.536C401.156 96.848 405.764 98 413.54 98H415.412L416.564 84.464H414.98ZM381.14 85.904C377.252 86.048 370.195 84.896 370.195 79.136C370.195 72.656 378.98 71.072 394.82 69.776V76.832C394.82 78.416 394.82 80 394.964 81.296C390.068 84.032 385.028 85.76 381.14 85.904ZM448.938 99.44C462.906 99.44 474.858 93.392 474.858 78.992C474.858 56.24 439.722 59.984 439.722 51.2C439.722 48.176 444.618 46.448 451.242 46.736C454.986 46.88 461.898 48.32 468.666 52.64L472.122 40.112C464.49 35.072 456.858 33.2 448.074 33.2C434.826 33.2 424.746 40.544 424.746 51.776C424.746 74.096 459.882 71.216 459.882 80.144C459.882 83.888 453.69 86.192 446.058 85.904C438.426 85.616 431.514 82.304 425.178 77.696L421.722 90.224C429.642 97.568 439.29 99.44 448.938 99.44ZM529.145 34.64V71.504C529.145 79.424 522.953 85.04 514.025 85.04C506.969 85.04 501.929 79.424 501.929 71.504V34.64H486.953V71.504C486.953 87.92 497.465 99.44 512.441 99.44C519.353 99.44 525.113 96.272 529.145 90.944V98C529.145 108.368 523.529 116.72 512.585 116.72C505.529 116.72 498.617 113.408 492.425 106.928L488.537 120.608C494.729 127.52 502.361 131.12 511.001 131.12C532.745 131.12 544.121 117.728 544.121 98V34.64H529.145Z" fill="#50D0DB"/>
</svg>
