<svg width="50" height="50" viewBox="0 0 50 50" fill="none" xmlns="http://www.w3.org/2000/svg">
<path d="M42.4484 26.3906L33.9375 20.3125L42.4484 14.2328L46.3813 15.5437L47.3688 12.5797L43.75 11.3734V7.8125H40.625V11.6953L32.8125 17.2766V8.38594L36.8047 5.725L35.0703 3.125L31.25 5.67188L27.4297 3.125L25.6953 5.725L29.6875 8.38594V17.2766L25 13.9281V17.7687L28.5625 20.3125L25 22.8563V26.6969L29.6875 23.3484V33.9109L35.0703 37.5L36.8047 34.9L32.8125 32.2391V23.3484L40.625 28.9297V32.8125H43.75V29.2516L47.3688 28.0438L46.3813 25.0797L42.4484 26.3906Z" fill="#BD5B5B"/>
<path d="M18.75 35.9375C18.75 37.1807 18.2561 38.373 17.3771 39.2521C16.498 40.1311 15.3057 40.625 14.0625 40.625C12.8193 40.625 11.627 40.1311 10.7479 39.2521C9.86886 38.373 9.375 37.1807 9.375 35.9375H18.75Z" fill="#BD5B5B"/>
<path d="M14.0625 46.875C11.9093 46.8774 9.80343 46.2436 8.00927 45.0532C6.2151 43.8628 4.81263 42.1688 3.97798 40.184C3.14332 38.1992 2.91368 36.012 3.31791 33.8972C3.72213 31.7823 4.74218 29.834 6.24999 28.2969V10.9375C6.24999 8.8655 7.07309 6.87836 8.53821 5.41323C10.0033 3.9481 11.9905 3.125 14.0625 3.125C16.1345 3.125 18.1216 3.9481 19.5868 5.41323C21.0519 6.87836 21.875 8.8655 21.875 10.9375V28.2969C23.3828 29.834 24.4028 31.7823 24.8071 33.8972C25.2113 36.012 24.9816 38.1992 24.147 40.184C23.3123 42.1688 21.9099 43.8628 20.1157 45.0532C18.3215 46.2436 16.2156 46.8774 14.0625 46.875ZM14.0625 6.25C12.8197 6.25124 11.6281 6.7455 10.7493 7.62431C9.87048 8.50312 9.37623 9.69468 9.37498 10.9375V29.6609L8.85624 30.1281C7.67636 31.1827 6.84454 32.5707 6.47089 34.1084C6.09724 35.6461 6.19937 37.2611 6.76377 38.7394C7.32816 40.2178 8.32821 41.49 9.63153 42.3875C10.9349 43.285 12.48 43.7656 14.0625 43.7656C15.6449 43.7656 17.1901 43.285 18.4934 42.3875C19.7968 41.49 20.7968 40.2178 21.3612 38.7394C21.9256 37.2611 22.0277 35.6461 21.6541 34.1084C21.2804 32.5707 20.4486 31.1827 19.2687 30.1281L18.75 29.6609V10.9375C18.7487 9.69468 18.2545 8.50312 17.3757 7.62431C16.4969 6.7455 15.3053 6.25124 14.0625 6.25Z" fill="#BD5B5B"/>
</svg>
